<?xml version="1.0" standalone="no"?>
<!DOCTYPE svg PUBLIC "-//W3C//DTD SVG 20010904//EN"
 "http://www.w3.org/TR/2001/REC-SVG-20010904/DTD/svg10.dtd">
<svg version="1.0" xmlns="http://www.w3.org/2000/svg"
 width="856.000000pt" height="856.000000pt" viewBox="0 0 856.000000 856.000000"
 preserveAspectRatio="xMidYMid meet">
<metadata>
Created by potrace 1.14, written by Peter Selinger 2001-2017
</metadata>
<g transform="translate(0.000000,856.000000) scale(0.100000,-0.100000)"
fill="#000000" stroke="none">
<path d="M1610 8460 c0 -5 7 -35 16 -67 9 -32 24 -89 35 -128 10 -38 27 -101
38 -140 10 -38 27 -97 36 -130 9 -33 34 -126 56 -207 22 -81 42 -155 44 -165
2 -10 10 -39 18 -65 8 -27 13 -48 11 -48 -3 0 0 -9 6 -20 6 -11 43 -38 83 -60
40 -23 81 -46 92 -53 43 -25 60 -34 70 -36 6 -1 17 -8 25 -15 8 -7 40 -27 70
-43 106 -58 296 -166 387 -219 50 -30 94 -54 98 -54 4 0 20 -9 37 -21 16 -12
32 -19 35 -15 3 3 -1 29 -10 58 -19 65 -57 203 -62 226 -1 9 -11 44 -21 77
-10 33 -19 67 -20 75 -2 8 -7 31 -13 50 -10 33 -59 208 -77 275 -4 17 -8 35
-9 42 0 6 -4 15 -8 19 -4 4 -7 14 -7 23 0 8 -7 40 -17 71 l-16 56 -206 120
c-113 65 -214 124 -225 131 -12 7 -36 20 -53 29 -18 10 -33 21 -33 26 0 4 -6
8 -13 8 -8 0 -60 28 -118 62 -57 33 -137 80 -176 104 -40 23 -73 39 -73 34z"/>
<path d="M6805 8365 c-88 -52 -171 -100 -185 -108 -14 -8 -65 -38 -115 -67
-49 -29 -115 -66 -145 -83 -61 -34 -177 -102 -200 -118 -8 -5 -27 -15 -42 -21
-15 -7 -32 -24 -37 -38 -12 -30 -43 -139 -46 -160 -2 -8 -40 -148 -85 -310
-45 -162 -83 -305 -86 -317 -2 -12 -9 -34 -14 -48 -5 -14 -8 -25 -6 -25 3 0
-4 -23 -14 -50 l-19 -51 22 7 c12 4 25 12 29 18 4 6 8 7 8 2 0 -5 8 -3 18 5 9
8 26 19 37 25 24 13 65 36 265 149 85 48 175 99 200 113 25 14 62 36 82 49 21
12 42 23 48 23 5 0 10 4 10 10 0 5 3 9 8 8 4 -1 39 16 77 38 39 23 79 46 90
52 11 6 19 13 18 16 -2 3 -3 7 -2 9 0 1 2 9 4 17 1 8 8 35 15 60 7 25 14 52
16 60 2 8 10 40 19 70 36 126 66 237 71 263 3 16 12 46 19 68 8 21 12 39 8 39
-3 0 0 7 7 15 7 8 10 15 6 15 -3 0 -1 12 5 28 6 15 13 38 15 52 3 14 9 39 14
55 14 45 60 213 60 219 0 12 -20 2 -175 -89z"/>
<path d="M4170 7325 c-58 -35 -110 -68 -117 -74 -7 -6 -16 -11 -20 -11 -5 0
-32 -16 -62 -35 -29 -19 -55 -35 -57 -35 -2 0 -28 -16 -58 -35 -30 -19 -59
-35 -65 -35 -5 0 -11 -4 -13 -8 -1 -4 -66 -45 -143 -91 -164 -97 -145 -85
-268 -161 -54 -33 -100 -60 -103 -60 -3 0 -24 -13 -47 -29 -23 -15 -60 -38
-82 -50 -22 -12 -53 -30 -70 -41 -16 -11 -39 -24 -50 -30 -77 -39 -98 -66
-127 -160 -78 -252 -130 -417 -136 -430 -3 -8 -6 -19 -7 -25 -1 -5 -11 -41
-24 -80 -26 -80 -28 -88 -29 -95 0 -3 -7 -23 -15 -45 -9 -22 -28 -79 -42 -128
l-27 -87 -31 18 c-92 55 -159 92 -168 92 -5 0 -9 5 -9 10 0 6 -5 10 -11 10 -5
0 -51 24 -102 54 -51 29 -112 65 -137 78 -25 14 -119 68 -210 120 -91 52 -187
108 -215 123 -78 45 -149 85 -165 95 -49 30 -216 125 -220 125 -3 0 -16 8 -30
16 -63 40 -362 209 -371 209 -5 0 -9 4 -9 10 0 5 -3 9 -7 8 -5 -1 -19 5 -33
14 -125 80 -175 96 -149 48 8 -14 57 -167 64 -200 2 -8 10 -34 19 -57 8 -24
13 -43 9 -43 -3 0 0 -6 6 -14 7 -8 14 -27 17 -43 2 -15 7 -35 11 -43 3 -8 7
-19 9 -25 8 -31 114 -365 124 -390 6 -16 11 -32 11 -35 0 -3 6 -27 14 -54 17
-55 40 -96 55 -96 6 0 29 -12 53 -27 23 -15 53 -34 67 -41 14 -7 46 -25 72
-40 25 -15 81 -47 123 -72 42 -25 84 -49 94 -55 9 -5 61 -36 116 -68 131 -76
134 -78 175 -103 19 -12 55 -33 80 -47 25 -13 101 -57 170 -97 69 -40 135 -78
147 -84 13 -6 23 -14 23 -18 0 -5 4 -8 10 -8 5 0 33 -14 62 -31 53 -32 87 -52
163 -94 45 -26 304 -178 350 -206 66 -39 125 -69 125 -62 0 4 -9 37 -20 73
-57 189 -93 308 -100 335 -5 17 -13 46 -20 65 -6 19 -13 43 -15 53 -2 10 -16
57 -31 105 -15 48 -30 101 -35 117 -4 17 -17 62 -29 100 -11 39 -23 79 -25 90
-3 11 -10 32 -16 48 -12 29 1 57 27 57 8 0 14 4 14 9 0 5 8 11 18 14 9 4 37
18 62 33 25 15 59 35 75 44 17 9 91 53 165 97 74 44 155 91 180 105 25 14 67
39 93 54 27 16 68 40 92 54 25 14 102 59 172 100 70 41 132 77 137 79 5 2 44
25 88 52 44 27 81 49 82 49 2 0 77 43 167 96 90 53 184 108 209 122 25 13 49
28 54 33 18 16 33 10 153 -60 177 -103 202 -118 278 -162 39 -22 84 -48 100
-58 27 -16 356 -209 430 -251 17 -10 57 -34 90 -53 33 -20 84 -48 113 -63 28
-16 52 -32 52 -36 0 -4 4 -8 9 -8 5 0 49 -23 98 -51 88 -52 130 -76 174 -101
13 -7 26 -15 29 -18 5 -5 41 -26 100 -57 19 -10 38 -22 41 -27 4 -5 11 -6 17
-2 8 5 -13 78 -94 326 -8 25 -17 56 -20 69 -3 13 -9 32 -15 43 -5 10 -7 18 -3
18 3 0 2 6 -3 13 -9 10 -20 44 -29 83 -1 7 -11 38 -21 70 -36 108 -65 199 -67
209 -1 5 -13 42 -25 80 l-24 71 -76 44 c-42 25 -82 46 -88 48 -7 2 -13 8 -13
13 0 5 -6 9 -13 9 -7 0 -23 9 -35 20 -12 12 -22 19 -22 16 0 -3 -54 28 -120
69 -66 41 -123 75 -125 75 -3 0 -29 16 -58 35 -28 19 -57 35 -64 35 -6 0 -13
3 -15 8 -3 6 -437 271 -461 281 -5 2 -32 18 -60 37 -28 19 -57 34 -63 34 -7 0
-14 4 -16 8 -2 7 -125 83 -131 81 -1 0 -49 -29 -107 -64z"/>
<path d="M7594 6519 c-126 -72 -260 -150 -299 -172 -38 -23 -73 -42 -77 -42
-4 0 -13 -6 -20 -12 -6 -7 -17 -13 -24 -13 -7 0 -14 -3 -16 -7 -1 -5 -21 -17
-43 -29 -22 -12 -100 -56 -173 -98 -73 -42 -135 -76 -139 -76 -3 0 -14 -6 -22
-14 -9 -8 -40 -27 -69 -42 -29 -16 -61 -33 -70 -39 -9 -5 -80 -46 -157 -90
-77 -44 -149 -85 -160 -92 -11 -7 -27 -15 -35 -19 -8 -4 -52 -29 -97 -56 -45
-26 -86 -48 -92 -48 -6 0 -11 -4 -11 -10 0 -5 -11 -12 -25 -16 -14 -3 -25 -9
-25 -13 0 -4 -20 -15 -44 -26 -45 -20 -52 -34 -82 -155 0 -3 -3 -12 -7 -20 -3
-8 -20 -64 -37 -125 -18 -60 -40 -137 -50 -170 -160 -539 -171 -577 -167 -581
2 -3 45 21 96 51 50 30 96 55 101 55 6 0 10 5 10 10 0 6 4 10 9 10 8 0 134 70
181 100 8 5 35 21 60 35 25 14 72 41 105 60 33 20 75 43 93 51 17 8 32 19 32
24 0 6 5 10 11 10 6 0 24 9 40 21 16 11 29 17 29 13 0 -4 8 0 18 8 9 8 51 34
92 58 41 23 86 50 100 58 14 9 27 17 30 17 3 0 24 13 47 28 24 15 45 27 47 27
3 0 41 23 86 50 45 28 83 50 86 50 2 0 23 12 47 27 23 15 45 26 50 25 4 -1 7
3 7 8 0 6 4 10 10 10 5 0 54 27 109 60 55 33 105 60 111 60 5 0 10 4 10 9 0 5
8 11 18 15 19 7 77 39 139 79 24 15 46 27 51 27 17 0 38 36 56 92 9 32 16 59
16 60 -1 2 4 17 10 33 7 17 45 138 87 270 41 132 84 269 96 305 11 36 21 67
22 70 4 18 37 128 42 140 3 8 7 20 9 25 1 6 5 18 9 28 4 9 5 17 3 17 -3 0
-108 -59 -234 -131z"/>
<path d="M22 4978 c10 -40 27 -104 38 -143 10 -38 28 -104 39 -145 12 -41 23
-82 25 -90 2 -8 9 -35 16 -60 7 -25 13 -49 14 -55 1 -5 5 -16 10 -23 4 -7 5
-16 2 -19 -3 -3 -1 -12 4 -19 6 -6 10 -16 9 -20 -1 -5 1 -16 4 -24 10 -24 60
-214 60 -227 0 -7 4 -13 9 -13 5 0 7 -4 4 -9 -3 -5 -1 -23 5 -40 8 -24 30 -42
96 -81 47 -27 87 -50 89 -50 2 0 21 -10 42 -23 20 -13 62 -37 92 -54 119 -66
436 -246 445 -253 6 -4 37 -22 70 -40 113 -62 200 -111 215 -120 27 -17 235
-135 265 -150 17 -8 32 -17 35 -20 3 -3 26 -17 53 -30 26 -14 47 -29 47 -33 0
-5 4 -6 9 -3 5 3 14 -1 21 -9 7 -8 16 -15 20 -15 5 0 79 -40 166 -90 87 -49
161 -90 165 -90 4 0 9 -4 11 -9 2 -4 13 -11 25 -15 l22 -7 -19 51 c-10 28 -18
52 -18 53 1 1 -23 76 -52 167 -29 90 -53 169 -54 175 -3 14 -36 116 -46 140
-4 11 -25 74 -45 140 -20 66 -46 147 -57 180 -11 33 -21 65 -21 72 0 10 -185
124 -214 131 -7 2 -13 7 -13 12 0 4 -8 10 -17 13 -10 3 -39 19 -65 34 -95 57
-158 93 -163 93 -3 0 -11 5 -18 10 -11 10 -317 190 -322 190 -1 0 -45 25 -96
55 -116 68 -114 68 -277 162 -73 43 -150 88 -170 100 -20 12 -44 25 -52 29 -8
4 -31 17 -50 29 -19 12 -55 33 -80 47 -25 14 -100 57 -167 97 -68 39 -124 71
-127 71 -2 0 5 -33 16 -72z"/>
<path d="M8510 5028 c-19 -12 -38 -27 -42 -33 -4 -5 -8 -6 -8 -2 0 4 -25 -8
-55 -28 -31 -19 -59 -35 -64 -35 -5 0 -16 -6 -23 -12 -13 -13 -40 -29 -108
-65 -19 -10 -37 -21 -40 -24 -5 -6 -108 -64 -147 -83 -13 -6 -23 -14 -23 -18
0 -5 -4 -8 -9 -8 -5 0 -74 -38 -155 -85 -80 -47 -150 -85 -155 -85 -5 0 -11
-4 -13 -8 -2 -6 -210 -130 -378 -224 -19 -11 -39 -24 -45 -28 -5 -4 -30 -19
-55 -32 -25 -14 -64 -36 -86 -49 -23 -13 -116 -67 -207 -119 l-165 -95 -22
-65 c-12 -36 -23 -69 -25 -75 -1 -5 -5 -17 -8 -25 -8 -22 -38 -119 -41 -133
-2 -7 -6 -19 -9 -27 -11 -27 -97 -305 -98 -315 -1 -5 -5 -18 -11 -28 -5 -10
-11 -26 -13 -35 -5 -24 -61 -201 -74 -234 -6 -16 -8 -28 -5 -28 4 0 1 -7 -6
-15 -28 -34 -19 -29 355 184 87 50 162 91 166 91 4 0 12 7 19 15 7 8 21 15 30
15 10 0 20 4 22 8 3 8 116 74 228 135 30 16 60 33 65 37 6 4 33 20 60 35 86
47 297 167 370 210 39 22 81 46 95 53 14 7 43 23 65 36 219 127 285 164 285
158 0 -4 4 -2 8 3 9 12 39 32 70 45 25 11 36 35 62 135 10 39 41 153 69 255
28 102 69 250 91 330 74 270 79 290 72 290 -4 0 -23 -10 -42 -22z"/>
<path d="M2937 4468 c13 -40 26 -82 28 -93 2 -11 4 -20 5 -20 1 0 3 -7 5 -15
2 -8 18 -62 36 -120 17 -58 39 -132 48 -165 10 -33 20 -67 23 -75 3 -8 13 -40
21 -70 26 -95 68 -234 74 -250 3 -8 7 -19 8 -25 19 -82 27 -95 63 -112 20 -9
39 -20 42 -23 4 -4 106 -64 256 -150 206 -118 542 -316 554 -326 8 -7 20 -14
25 -15 21 -4 55 -23 55 -30 0 -4 11 -10 25 -13 14 -4 25 -11 25 -17 0 -6 4 -8
9 -5 14 9 36 -23 24 -35 -14 -14 -224 -129 -235 -129 -4 0 -8 -3 -8 -8 0 -4
-15 -14 -32 -21 -18 -8 -95 -50 -172 -93 -77 -43 -143 -78 -148 -78 -4 0 -8
-5 -8 -12 0 -6 -3 -8 -6 -5 -4 4 -19 -2 -33 -11 -14 -10 -37 -23 -51 -30 -14
-6 -32 -16 -40 -21 -67 -41 -120 -70 -120 -63 0 4 -4 2 -8 -4 -4 -6 -35 -25
-69 -43 l-62 -33 -53 28 c-29 16 -54 32 -56 37 -2 4 -8 7 -14 7 -5 0 -53 26
-106 57 -54 32 -99 58 -102 58 -3 0 -25 12 -50 27 -154 90 -312 178 -319 178
-5 0 -11 3 -13 8 -1 4 -19 15 -38 26 -93 50 -147 81 -170 96 -14 9 -38 24 -55
32 -16 8 -56 29 -87 47 -32 18 -58 31 -58 29 0 -3 9 -31 20 -64 11 -32 22 -67
25 -79 2 -11 20 -67 40 -125 19 -58 37 -114 40 -125 3 -11 24 -78 47 -150 24
-71 42 -136 42 -142 -1 -7 2 -13 7 -13 5 0 8 -3 7 -7 -1 -5 10 -48 26 -98 36
-115 37 -120 37 -123 -1 -1 5 -18 13 -37 15 -36 16 -38 16 -54 0 -5 17 -18 38
-28 64 -34 147 -80 227 -127 42 -26 80 -46 85 -46 4 0 13 -7 20 -15 6 -8 15
-14 18 -12 4 1 41 -18 82 -43 41 -24 81 -45 89 -46 8 -2 17 -7 20 -12 3 -5 33
-24 66 -41 33 -18 79 -43 102 -57 l42 -24 33 20 c18 11 40 23 48 27 8 4 48 26
88 50 40 24 77 43 82 43 6 0 10 3 10 8 0 4 19 16 43 27 23 11 44 22 47 25 8 8
43 29 75 45 17 9 63 35 103 58 323 188 483 277 494 277 7 0 39 -16 71 -35 32
-19 62 -35 68 -35 5 0 9 -5 9 -10 0 -6 3 -9 8 -8 4 1 18 -5 32 -14 53 -34 151
-88 160 -88 4 0 10 -3 12 -7 2 -5 17 -15 33 -24 17 -8 107 -60 200 -114 193
-111 220 -127 273 -156 82 -47 142 -84 142 -89 0 -8 -107 -72 -180 -108 -19
-9 -37 -20 -40 -23 -3 -3 -34 -22 -70 -41 -36 -19 -213 -119 -394 -221 -205
-116 -334 -183 -340 -178 -6 5 -38 24 -71 41 -33 18 -65 37 -71 41 -6 5 -42
25 -80 45 -38 20 -80 44 -94 54 -14 9 -40 23 -57 31 -18 8 -33 17 -33 21 0 5
-4 8 -9 8 -13 0 -175 92 -179 102 -2 4 -10 8 -18 8 -8 0 -32 11 -54 25 -22 14
-44 25 -50 25 -5 0 -10 5 -10 10 0 6 -4 10 -10 10 -5 0 -33 14 -62 31 -29 18
-76 44 -105 60 -29 16 -61 34 -72 41 -27 16 -34 7 -20 -28 6 -16 12 -36 14
-44 4 -19 28 -106 114 -410 22 -80 54 -192 71 -250 17 -58 33 -116 36 -130 2
-14 9 -36 13 -50 5 -14 15 -46 22 -71 l12 -46 146 -78 c80 -43 154 -85 164
-93 9 -8 17 -12 17 -9 0 3 27 -10 61 -29 33 -18 65 -34 69 -34 5 0 10 -3 12
-7 2 -5 37 -25 78 -47 41 -21 99 -52 128 -68 l53 -29 52 29 c52 29 108 60 262
142 44 24 109 59 145 78 145 80 207 113 237 129 25 13 34 26 46 72 9 31 25 90
37 131 21 75 28 101 35 130 2 8 4 15 5 15 1 0 3 7 5 15 2 8 6 24 9 35 2 11 11
41 19 67 8 27 13 48 11 48 -3 0 2 13 11 30 9 16 14 30 11 30 -2 0 3 21 11 48
15 48 52 185 58 212 2 8 4 16 5 18 2 1 3 5 4 10 4 12 27 94 42 149 l15 52 167
94 c92 52 183 105 202 116 19 12 46 27 60 34 47 23 165 90 193 109 15 11 27
16 27 11 0 -4 4 -3 8 2 4 6 24 19 45 30 51 27 87 57 91 75 2 8 5 22 9 30 11
30 60 185 62 200 2 8 4 15 5 15 1 0 4 11 6 25 2 13 8 27 12 30 6 4 10 14 16
45 3 13 59 191 102 324 19 57 34 109 34 115 0 6 7 24 15 40 8 15 13 32 10 36
-3 5 -1 11 4 14 4 3 12 20 16 38 10 44 12 50 20 72 7 17 6 17 -21 3 -16 -8
-69 -38 -117 -66 -49 -28 -91 -51 -93 -51 -3 0 -30 -16 -60 -35 -30 -19 -57
-35 -60 -35 -3 0 -48 -25 -99 -55 -52 -30 -99 -55 -104 -55 -6 0 -11 -4 -11
-9 0 -5 -8 -11 -17 -14 -10 -3 -44 -21 -75 -39 -115 -67 -392 -223 -403 -227
-5 -2 -18 -10 -27 -18 -24 -22 -16 -26 -353 164 -33 19 -76 41 -95 51 -19 9
-36 20 -38 25 -2 4 -8 7 -13 7 -5 0 -55 26 -112 58 -56 32 -109 61 -117 65 -8
4 -33 18 -55 30 -73 42 -149 84 -202 112 -48 24 -68 45 -44 45 5 0 39 18 75
40 36 22 68 40 71 40 3 0 11 5 18 11 7 5 82 50 167 99 85 49 160 94 167 99 7
6 14 11 17 11 5 0 71 37 271 155 83 48 166 96 185 107 19 11 41 25 48 30 6 6
12 7 12 3 0 -5 9 2 20 15 11 13 20 30 20 38 0 9 8 41 19 71 16 48 40 127 47
154 1 4 2 8 4 10 1 1 3 9 5 17 4 15 15 54 49 170 9 30 18 62 20 70 6 24 77
263 83 280 3 8 7 20 8 25 2 6 10 35 19 65 10 30 19 65 22 78 l5 23 -48 -27
c-26 -14 -111 -63 -188 -109 -77 -45 -156 -92 -175 -103 -19 -12 -59 -33 -87
-49 -29 -15 -53 -31 -53 -35 0 -4 -4 -8 -10 -8 -5 0 -33 -14 -62 -31 -29 -18
-69 -41 -88 -52 -159 -89 -316 -183 -318 -189 -2 -4 -8 -8 -13 -8 -8 0 -180
-97 -279 -158 -43 -27 -42 -27 -70 -2 -12 11 -26 17 -31 15 -4 -3 -10 -1 -14
5 -4 6 -27 22 -53 35 -26 14 -56 31 -67 38 -81 51 -128 78 -138 80 -7 1 -14 5
-17 8 -4 5 -65 41 -165 99 -16 10 -101 59 -189 109 -87 51 -168 97 -180 104
-11 7 -23 14 -26 17 -9 9 -85 51 -102 57 -10 3 -18 9 -18 14 0 5 -4 9 -9 9 -5
0 -75 39 -156 86 -80 47 -152 87 -159 90 -9 3 -5 -18 11 -68z"/>
</g>
</svg>
