<?xml version="1.0" encoding="utf-8"?>
<svg viewBox="587.317 66.425 107.168 105" xmlns="http://www.w3.org/2000/svg">
  <defs>
    <clipPath id="0290856456">
      <path d="M 133.867188 115 L 241.117188 115 L 241.117188 207.039062 L 133.867188 207.039062 Z M 133.867188 115 " clip-rule="nonzero"/>
    </clipPath>
    <clipPath id="ff17ff0904">
      <path d="M 206 102.039062 L 222 102.039062 L 222 121 L 206 121 Z M 206 102.039062 " clip-rule="nonzero"/>
    </clipPath>
    <clipPath id="e7e704fd12">
      <path d="M 154 102.039062 L 169 102.039062 L 169 121 L 154 121 Z M 154 102.039062 " clip-rule="nonzero"/>
    </clipPath>
  </defs>
  <g clip-path="url(#0290856456)" transform="matrix(1, 0, 0, 1, 453.410889, -35.614201)">
    <path fill="#000000" d="M 187.492188 207.039062 L 196.589844 202.113281 L 200.28125 189.019531 L 210.082031 183.484375 L 214.183594 170.574219 L 237.671875 157.246094 L 241.074219 144.769531 L 218.144531 158.09375 L 214.179688 170.574219 L 200.117188 178.550781 L 187.488281 171.558594 L 174.855469 178.550781 L 160.796875 170.574219 L 156.832031 158.09375 L 133.90625 144.769531 L 137.304688 157.246094 L 160.796875 170.574219 L 164.898438 183.484375 L 174.699219 189.019531 L 178.386719 202.113281 L 187.488281 207.039062 Z M 174.699219 189.023438 L 187.492188 196.246094 L 200.28125 189.023438 L 187.492188 181.667969 Z M 187.492188 171.460938 L 200.875 163.679688 L 204.582031 151.164062 L 227.933594 137.570312 L 231.945312 124.765625 L 208.425781 138.203125 L 204.496094 125.777344 L 187.488281 115.550781 L 170.480469 125.777344 L 166.550781 138.203125 L 143.03125 124.765625 L 147.042969 137.570312 L 170.394531 151.164062 L 174.105469 163.679688 L 187.488281 171.460938 Z M 187.492188 126 L 208.425781 138.203125 L 204.585938 151.164062 L 187.492188 161.113281 L 170.398438 151.164062 L 166.554688 138.203125 Z M 187.492188 126 " fill-opacity="1" fill-rule="evenodd"/>
  </g>
  <g clip-path="url(#ff17ff0904)" transform="matrix(1, 0, 0, 1, 453.410889, -35.614201)">
    <path fill="#b6875b" d="M 210.058594 108.605469 L 206.707031 120.898438 L 217.957031 114.515625 L 221.355469 102.039062 Z M 210.058594 108.605469 " fill-opacity="1" fill-rule="evenodd"/>
  </g>
  <g clip-path="url(#e7e704fd12)" transform="matrix(1, 0, 0, 1, 453.410889, -35.614201)">
    <path fill="#b6875b" d="M 165.296875 108.605469 L 168.648438 120.898438 L 157.398438 114.515625 L 154 102.039062 Z M 165.296875 108.605469 " fill-opacity="1" fill-rule="evenodd"/>
  </g>
</svg>