<?xml version="1.0" encoding="utf-8"?>
<svg viewBox="529.724 178.082 370.276 21.919" xmlns="http://www.w3.org/2000/svg">
  <g fill="#000000" fill-opacity="1" transform="matrix(1, 0, 0, 1, 455.837097, -41.40073)">
    <g transform="translate(71.168487, 241.010095)">
      <g>
        <path d="M 9.53125 -8.1875 C 9.207031 -8.164062 8.863281 -8.15625 8.5 -8.15625 C 8.144531 -8.15625 7.617188 -8.179688 6.921875 -8.234375 L 6.921875 0 L 2.71875 0 L 2.71875 -21.15625 C 4.195312 -21.34375 6.015625 -21.4375 8.171875 -21.4375 C 11.097656 -21.4375 13.28125 -20.894531 14.71875 -19.8125 C 16.164062 -18.738281 16.890625 -17.070312 16.890625 -14.8125 C 16.890625 -13.0625 16.226562 -11.5625 14.90625 -10.3125 C 14.46875 -9.914062 13.972656 -9.566406 13.421875 -9.265625 L 16.640625 -2.46875 C 17.273438 -1.0625 17.765625 -0.226562 18.109375 0.03125 L 18.015625 0.109375 C 16.992188 -0.0546875 15.390625 -0.0507812 13.203125 0.125 Z M 8.46875 -17.703125 C 7.925781 -17.703125 7.410156 -17.675781 6.921875 -17.625 L 6.921875 -11.578125 C 7.429688 -11.503906 8.035156 -11.46875 8.734375 -11.46875 C 9.429688 -11.46875 10.015625 -11.523438 10.484375 -11.640625 C 10.960938 -11.765625 11.375 -11.957031 11.71875 -12.21875 C 12.46875 -12.769531 12.84375 -13.601562 12.84375 -14.71875 C 12.84375 -15.84375 12.453125 -16.632812 11.671875 -17.09375 C 10.941406 -17.5 9.875 -17.703125 8.46875 -17.703125 Z M 8.46875 -17.703125 "/>
      </g>
    </g>
  </g>
  <g fill="#000000" fill-opacity="1" transform="matrix(1, 0, 0, 1, 455.837097, -41.40073)">
    <g transform="translate(94.58753, 241.010095)">
      <g>
        <path d="M 4.4375 -2.5 C 3.476562 -3.414062 2.722656 -4.515625 2.171875 -5.796875 C 1.617188 -7.085938 1.34375 -8.5 1.34375 -10.03125 C 1.34375 -11.570312 1.597656 -13.023438 2.109375 -14.390625 C 2.628906 -15.765625 3.367188 -16.972656 4.328125 -18.015625 C 5.296875 -19.066406 6.457031 -19.898438 7.8125 -20.515625 C 9.175781 -21.128906 10.703125 -21.4375 12.390625 -21.4375 C 15.296875 -21.4375 17.75 -20.519531 19.75 -18.6875 C 21.875 -16.726562 22.9375 -14.082031 22.9375 -10.75 C 22.9375 -7.519531 21.84375 -4.832031 19.65625 -2.6875 C 18.300781 -1.375 16.691406 -0.46875 14.828125 0.03125 C 13.910156 0.269531 12.835938 0.390625 11.609375 0.390625 C 10.378906 0.390625 9.117188 0.140625 7.828125 -0.359375 C 6.535156 -0.867188 5.40625 -1.582031 4.4375 -2.5 Z M 5.75 -10.25 C 5.75 -9.269531 5.910156 -8.367188 6.234375 -7.546875 C 6.554688 -6.722656 7.007812 -6.015625 7.59375 -5.421875 C 8.832031 -4.179688 10.421875 -3.5625 12.359375 -3.5625 C 14.203125 -3.5625 15.679688 -4.15625 16.796875 -5.34375 C 17.941406 -6.582031 18.515625 -8.265625 18.515625 -10.390625 C 18.515625 -12.398438 17.972656 -14.070312 16.890625 -15.40625 C 15.710938 -16.84375 14.109375 -17.5625 12.078125 -17.5625 C 10.097656 -17.5625 8.53125 -16.832031 7.375 -15.375 C 6.289062 -14.019531 5.75 -12.3125 5.75 -10.25 Z M 5.75 -10.25 "/>
      </g>
    </g>
  </g>
  <g fill="#000000" fill-opacity="1" transform="matrix(1, 0, 0, 1, 455.837097, -41.40073)">
    <g transform="translate(123.419224, 241.010095)">
      <g>
        <path d="M 14.71875 -21.125 C 15.375 -21.070312 15.914062 -21.046875 16.34375 -21.046875 L 17.65625 -21.046875 C 18.101562 -21.046875 18.566406 -21.085938 19.046875 -21.171875 L 19.046875 -8.078125 C 19.046875 -5.484375 18.257812 -3.398438 16.6875 -1.828125 C 15.207031 -0.347656 13.34375 0.390625 11.09375 0.390625 C 8.632812 0.390625 6.644531 -0.242188 5.125 -1.515625 C 3.425781 -2.953125 2.578125 -5.019531 2.578125 -7.71875 L 2.578125 -21.125 C 3.453125 -21.070312 4.273438 -21.046875 5.046875 -21.046875 C 5.828125 -21.046875 6.472656 -21.085938 6.984375 -21.171875 L 6.984375 -7.515625 C 6.984375 -6.179688 7.390625 -5.148438 8.203125 -4.421875 C 8.953125 -3.742188 9.898438 -3.40625 11.046875 -3.40625 C 12.734375 -3.40625 13.859375 -4.269531 14.421875 -6 C 14.617188 -6.625 14.71875 -7.394531 14.71875 -8.3125 Z M 14.71875 -21.125 "/>
      </g>
    </g>
  </g>
  <g fill="#000000" fill-opacity="1" transform="matrix(1, 0, 0, 1, 455.837097, -41.40073)">
    <g transform="translate(149.607895, 241.010095)">
      <g>
        <path d="M 2.859375 0 C 2.921875 -0.351562 2.953125 -0.742188 2.953125 -1.171875 L 2.953125 -21.046875 L 6.125 -21.046875 L 14.515625 -7.84375 L 14.515625 -19.96875 C 14.515625 -20.550781 14.460938 -20.910156 14.359375 -21.046875 L 18.625 -21.046875 C 18.570312 -20.617188 18.546875 -20.15625 18.546875 -19.65625 L 18.546875 0 L 15.25 0 L 7 -12.671875 L 7 0 Z M 2.859375 0 "/>
      </g>
    </g>
  </g>
  <g fill="#000000" fill-opacity="1" transform="matrix(1, 0, 0, 1, 455.837097, -41.40073)">
    <g transform="translate(175.654132, 241.010095)">
      <g>
        <path d="M 7.84375 0.390625 C 6.132812 0.390625 4.523438 0.253906 3.015625 -0.015625 L 3.015625 -21.1875 C 4.410156 -21.351562 6.03125 -21.4375 7.875 -21.4375 C 9.71875 -21.4375 11.382812 -21.1875 12.875 -20.6875 C 14.363281 -20.1875 15.609375 -19.472656 16.609375 -18.546875 C 18.640625 -16.691406 19.65625 -14.09375 19.65625 -10.75 C 19.65625 -7 18.523438 -4.15625 16.265625 -2.21875 C 14.242188 -0.476562 11.4375 0.390625 7.84375 0.390625 Z M 7.140625 -3.46875 C 7.828125 -3.34375 8.507812 -3.28125 9.1875 -3.28125 C 9.875 -3.28125 10.613281 -3.410156 11.40625 -3.671875 C 12.195312 -3.941406 12.882812 -4.363281 13.46875 -4.9375 C 14.707031 -6.132812 15.328125 -7.882812 15.328125 -10.1875 C 15.328125 -13.96875 13.953125 -16.289062 11.203125 -17.15625 C 10.296875 -17.4375 9.242188 -17.578125 8.046875 -17.578125 L 7.625 -17.578125 C 7.46875 -17.578125 7.304688 -17.570312 7.140625 -17.5625 Z M 7.140625 -3.46875 "/>
      </g>
    </g>
  </g>
  <g fill="#000000" fill-opacity="1" transform="matrix(1, 0, 0, 1, 455.837097, -41.40073)">
    <g transform="translate(201.77949, 241.010095)">
      <g>
        <path d="M 10.3125 0.09375 C 9.8125 0.03125 8.507812 0 6.40625 0 L 5.90625 0 L 5.90625 -17.5 L 2.765625 -17.5 C 1.835938 -17.5 1.289062 -17.453125 1.125 -17.359375 C 0.957031 -17.265625 0.828125 -17.179688 0.734375 -17.109375 L 0.6875 -17.125 L 0.6875 -21.171875 L 0.734375 -21.21875 C 1.078125 -21.101562 2.015625 -21.046875 3.546875 -21.046875 L 13.46875 -21.046875 C 14.394531 -21.046875 14.941406 -21.09375 15.109375 -21.1875 C 15.273438 -21.28125 15.40625 -21.363281 15.5 -21.4375 L 15.546875 -21.421875 L 15.546875 -17.375 L 15.5 -17.328125 C 15.15625 -17.441406 14.21875 -17.5 12.6875 -17.5 L 10.3125 -17.5 Z M 10.3125 0.09375 "/>
      </g>
    </g>
  </g>
  <g fill="#000000" fill-opacity="1" transform="matrix(1, 0, 0, 1, 455.837097, -41.40073)">
    <g transform="translate(222.555504, 241.010095)">
      <g>
        <path d="M 4.25 0.125 C 3.34375 0.0390625 2.285156 0 1.078125 0 L -0.171875 0 L 6.703125 -19.28125 C 7.015625 -20.15625 7.171875 -20.660156 7.171875 -20.796875 C 7.171875 -20.941406 7.164062 -21.03125 7.15625 -21.0625 L 7.171875 -21.09375 C 7.859375 -21.0625 8.585938 -21.046875 9.359375 -21.046875 C 9.984375 -21.046875 10.738281 -21.054688 11.625 -21.078125 L 11.640625 -21.046875 C 11.617188 -21.003906 11.609375 -20.945312 11.609375 -20.875 C 11.609375 -20.675781 11.769531 -20.140625 12.09375 -19.265625 L 19.109375 0.046875 C 18.898438 0.0351562 18.65625 0.03125 18.375 0.03125 C 18.375 0.03125 18.097656 0.0195312 17.546875 0 C 17.285156 0 17.050781 0 16.84375 0 L 14.390625 0 L 12.890625 -4.5625 L 5.75 -4.5625 Z M 11.65625 -8.359375 L 9.265625 -15.71875 L 6.953125 -8.359375 Z M 11.65625 -8.359375 "/>
      </g>
    </g>
  </g>
  <g fill="#000000" fill-opacity="1" transform="matrix(1, 0, 0, 1, 455.837097, -41.40073)">
    <g transform="translate(246.037847, 241.010095)">
      <g>
        <path d="M 16.015625 -1.53125 C 15.242188 -0.914062 14.238281 -0.441406 13 -0.109375 C 11.769531 0.222656 10.253906 0.390625 8.453125 0.390625 C 6.660156 0.390625 4.75 0.226562 2.71875 -0.09375 L 2.71875 -20.953125 C 4.769531 -21.273438 6.546875 -21.4375 8.046875 -21.4375 C 9.546875 -21.4375 10.78125 -21.296875 11.75 -21.015625 C 12.71875 -20.734375 13.503906 -20.347656 14.109375 -19.859375 C 15.316406 -18.921875 15.921875 -17.703125 15.921875 -16.203125 C 15.921875 -14.710938 15.375 -13.476562 14.28125 -12.5 C 15.570312 -12.101562 16.570312 -11.34375 17.28125 -10.21875 C 17.925781 -9.21875 18.25 -8.109375 18.25 -6.890625 C 18.25 -5.671875 18.070312 -4.628906 17.71875 -3.765625 C 17.363281 -2.898438 16.796875 -2.15625 16.015625 -1.53125 Z M 6.921875 -13.078125 C 7.359375 -13.003906 7.910156 -12.96875 8.578125 -12.96875 C 9.242188 -12.96875 9.789062 -13.054688 10.21875 -13.234375 C 10.644531 -13.410156 10.972656 -13.628906 11.203125 -13.890625 C 11.578125 -14.328125 11.765625 -14.929688 11.765625 -15.703125 C 11.765625 -17.316406 10.816406 -18.125 8.921875 -18.125 C 8.117188 -18.125 7.453125 -18.085938 6.921875 -18.015625 Z M 9.25 -9.703125 C 8.363281 -9.703125 7.585938 -9.644531 6.921875 -9.53125 L 6.921875 -3.3125 C 7.648438 -3.113281 8.421875 -3.015625 9.234375 -3.015625 C 10.046875 -3.015625 10.757812 -3.113281 11.375 -3.3125 C 12 -3.507812 12.519531 -3.773438 12.9375 -4.109375 C 13.789062 -4.804688 14.21875 -5.691406 14.21875 -6.765625 C 14.21875 -8.722656 12.5625 -9.703125 9.25 -9.703125 Z M 9.25 -9.703125 "/>
      </g>
    </g>
  </g>
  <g fill="#000000" fill-opacity="1" transform="matrix(1, 0, 0, 1, 455.837097, -41.40073)">
    <g transform="translate(269.520189, 241.010095)">
      <g>
        <path d="M 5.8125 0 C 4.257812 0 3.226562 0.03125 2.71875 0.09375 L 2.71875 -21.140625 C 2.96875 -21.078125 3.488281 -21.046875 4.28125 -21.046875 C 5.082031 -21.046875 6.015625 -21.066406 7.078125 -21.109375 L 7.078125 -3.796875 L 10.34375 -3.796875 C 11.289062 -3.796875 12.050781 -3.828125 12.625 -3.890625 C 12.550781 -1.421875 12.515625 -0.140625 12.515625 -0.046875 L 12.515625 0.109375 C 11.484375 0.0351562 9.75 0 7.3125 0 Z M 5.8125 0 "/>
      </g>
    </g>
  </g>
  <g fill="#000000" fill-opacity="1" transform="matrix(1, 0, 0, 1, 455.837097, -41.40073)">
    <g transform="translate(287.589899, 241.010095)">
      <g>
        <path d="M 13.3125 -3.796875 C 13.957031 -3.796875 14.410156 -3.859375 14.671875 -3.984375 L 14.734375 -3.96875 L 14.578125 0 L 2.71875 0 L 2.71875 -21.15625 C 3.007812 -21.132812 3.328125 -21.117188 3.671875 -21.109375 L 4.78125 -21.078125 C 5.519531 -21.054688 6.320312 -21.046875 7.1875 -21.046875 C 9.601562 -21.046875 11.992188 -21.085938 14.359375 -21.171875 C 14.234375 -20.242188 14.171875 -19.003906 14.171875 -17.453125 C 14.171875 -17.285156 14.179688 -17.160156 14.203125 -17.078125 L 14.171875 -17.03125 C 13.628906 -17.1875 12.847656 -17.265625 11.828125 -17.265625 L 6.84375 -17.265625 L 6.84375 -13.234375 L 10.609375 -13.234375 C 11.765625 -13.234375 12.457031 -13.265625 12.6875 -13.328125 L 12.734375 -9.421875 C 12.234375 -9.472656 11.582031 -9.5 10.78125 -9.5 L 6.84375 -9.5 L 6.84375 -3.796875 Z M 13.3125 -3.796875 "/>
      </g>
    </g>
  </g>
  <g fill="#b6875b" fill-opacity="1" transform="matrix(1.6484, 0, 0, 1.6484, 527.925964, -242.229782)" style="">
    <g transform="translate(148.317812, 268.043918)">
      <g>
        <path d="M 2.59375 0.078125 C 2.039062 0.0234375 1.394531 0 0.65625 0 L -0.109375 0 L 4.09375 -11.75 C 4.28125 -12.28125 4.375 -12.585938 4.375 -12.671875 C 4.375 -12.765625 4.367188 -12.816406 4.359375 -12.828125 L 4.375 -12.859375 C 4.789062 -12.835938 5.234375 -12.828125 5.703125 -12.828125 C 6.085938 -12.828125 6.550781 -12.832031 7.09375 -12.84375 L 7.09375 -12.828125 C 7.082031 -12.796875 7.078125 -12.757812 7.078125 -12.71875 C 7.078125 -12.59375 7.175781 -12.269531 7.375 -11.75 L 11.65625 0.03125 C 11.519531 0.0195312 11.367188 0.015625 11.203125 0.015625 C 11.203125 0.015625 11.03125 0.0078125 10.6875 0 C 10.53125 0 10.390625 0 10.265625 0 L 8.765625 0 L 7.859375 -2.78125 L 3.5 -2.78125 Z M 7.109375 -5.09375 L 5.65625 -9.578125 L 4.234375 -5.09375 Z M 7.109375 -5.09375 "/>
      </g>
    </g>
  </g>
  <g fill="#b6875b" fill-opacity="1" transform="matrix(1.6484, 0, 0, 1.6484, 527.925964, -242.229782)" style="">
    <g transform="translate(160.846882, 268.043918)">
      <g>
        <path d="M 5.8125 -4.984375 C 5.613281 -4.972656 5.40625 -4.96875 5.1875 -4.96875 C 4.96875 -4.96875 4.644531 -4.984375 4.21875 -5.015625 L 4.21875 0 L 1.65625 0 L 1.65625 -12.890625 C 2.5625 -13.003906 3.664062 -13.0625 4.96875 -13.0625 C 6.757812 -13.0625 8.09375 -12.734375 8.96875 -12.078125 C 9.851562 -11.421875 10.296875 -10.40625 10.296875 -9.03125 C 10.296875 -7.957031 9.890625 -7.039062 9.078125 -6.28125 C 8.816406 -6.039062 8.515625 -5.832031 8.171875 -5.65625 L 10.140625 -1.5 C 10.523438 -0.644531 10.820312 -0.140625 11.03125 0.015625 L 10.984375 0.0625 C 10.359375 -0.0390625 9.378906 -0.0351562 8.046875 0.078125 Z M 5.15625 -10.796875 C 4.832031 -10.796875 4.519531 -10.78125 4.21875 -10.75 L 4.21875 -7.0625 C 4.53125 -7.007812 4.894531 -6.984375 5.3125 -6.984375 C 5.738281 -6.984375 6.097656 -7.019531 6.390625 -7.09375 C 6.679688 -7.175781 6.929688 -7.289062 7.140625 -7.4375 C 7.597656 -7.78125 7.828125 -8.289062 7.828125 -8.96875 C 7.828125 -9.65625 7.585938 -10.140625 7.109375 -10.421875 C 6.671875 -10.671875 6.019531 -10.796875 5.15625 -10.796875 Z M 5.15625 -10.796875 "/>
      </g>
    </g>
  </g>
  <g fill="#b6875b" fill-opacity="1" transform="matrix(1.6484, 0, 0, 1.6484, 527.925964, -242.229782)" style="">
    <g transform="translate(173.337385, 268.043918)">
      <g>
        <path d="M 6.28125 0.0625 C 5.976562 0.0195312 5.1875 0 3.90625 0 L 3.59375 0 L 3.59375 -10.671875 L 1.6875 -10.671875 C 1.125 -10.671875 0.789062 -10.640625 0.6875 -10.578125 C 0.582031 -10.523438 0.5 -10.472656 0.4375 -10.421875 L 0.421875 -10.4375 L 0.421875 -12.90625 L 0.4375 -12.9375 C 0.65625 -12.863281 1.226562 -12.828125 2.15625 -12.828125 L 8.203125 -12.828125 C 8.773438 -12.828125 9.109375 -12.851562 9.203125 -12.90625 C 9.304688 -12.96875 9.390625 -13.019531 9.453125 -13.0625 L 9.484375 -13.0625 L 9.484375 -10.59375 L 9.453125 -10.5625 C 9.234375 -10.632812 8.660156 -10.671875 7.734375 -10.671875 L 6.28125 -10.671875 Z M 6.28125 0.0625 "/>
      </g>
    </g>
  </g>
  <g fill="#b6875b" fill-opacity="1" transform="matrix(1.6484, 0, 0, 1.6484, 527.925964, -242.229782)" style="">
    <g transform="translate(184.217725, 268.043918)">
      <g>
        <path d="M 1.953125 -12.859375 C 2.597656 -12.835938 2.988281 -12.828125 3.125 -12.828125 L 3.8125 -12.828125 C 4.15625 -12.828125 4.429688 -12.851562 4.640625 -12.90625 L 4.625 0 L 1.953125 0 Z M 1.953125 -12.859375 "/>
      </g>
    </g>
  </g>
  <g fill="#b6875b" fill-opacity="1" transform="matrix(1.6484, 0, 0, 1.6484, 527.925964, -242.229782)" style="">
    <g transform="translate(191.800626, 268.043918)">
      <g>
        <path d="M 9.40625 -12.109375 L 9.21875 -9.28125 L 9.15625 -9.265625 C 8.675781 -9.972656 7.863281 -10.429688 6.71875 -10.640625 C 6.363281 -10.710938 6.019531 -10.75 5.6875 -10.75 C 5.351562 -10.75 5.066406 -10.71875 4.828125 -10.65625 C 4.597656 -10.601562 4.398438 -10.523438 4.234375 -10.421875 C 3.878906 -10.179688 3.703125 -9.878906 3.703125 -9.515625 C 3.703125 -9.023438 3.859375 -8.65625 4.171875 -8.40625 C 4.554688 -8.113281 5.191406 -7.90625 6.078125 -7.78125 C 6.972656 -7.664062 7.691406 -7.503906 8.234375 -7.296875 C 8.773438 -7.085938 9.21875 -6.828125 9.5625 -6.515625 C 10.21875 -5.921875 10.546875 -5.085938 10.546875 -4.015625 C 10.546875 -2.597656 10.015625 -1.507812 8.953125 -0.75 C 8.035156 -0.09375 6.882812 0.234375 5.5 0.234375 C 4.375 0.234375 3.265625 0.0234375 2.171875 -0.390625 C 1.816406 -0.535156 1.503906 -0.703125 1.234375 -0.890625 L 1.34375 -4.109375 L 1.375 -4.140625 C 2.175781 -2.765625 3.484375 -2.078125 5.296875 -2.078125 C 6.597656 -2.078125 7.457031 -2.390625 7.875 -3.015625 C 8.007812 -3.222656 8.078125 -3.457031 8.078125 -3.71875 C 8.078125 -3.976562 8.035156 -4.191406 7.953125 -4.359375 C 7.867188 -4.535156 7.734375 -4.679688 7.546875 -4.796875 C 7.171875 -5.046875 6.539062 -5.210938 5.65625 -5.296875 C 4.78125 -5.378906 4.0625 -5.535156 3.5 -5.765625 C 2.9375 -5.992188 2.488281 -6.28125 2.15625 -6.625 C 1.550781 -7.238281 1.25 -8.097656 1.25 -9.203125 C 1.25 -10.347656 1.648438 -11.273438 2.453125 -11.984375 C 3.273438 -12.703125 4.378906 -13.0625 5.765625 -13.0625 C 7.148438 -13.0625 8.363281 -12.742188 9.40625 -12.109375 Z M 9.40625 -12.109375 "/>
      </g>
    </g>
  </g>
  <g fill="#b6875b" fill-opacity="1" transform="matrix(1.6484, 0, 0, 1.6484, 527.925964, -242.229782)" style="">
    <g transform="translate(204.29113, 268.043918)">
      <g>
        <path d="M 6.28125 0.0625 C 5.976562 0.0195312 5.1875 0 3.90625 0 L 3.59375 0 L 3.59375 -10.671875 L 1.6875 -10.671875 C 1.125 -10.671875 0.789062 -10.640625 0.6875 -10.578125 C 0.582031 -10.523438 0.5 -10.472656 0.4375 -10.421875 L 0.421875 -10.4375 L 0.421875 -12.90625 L 0.4375 -12.9375 C 0.65625 -12.863281 1.226562 -12.828125 2.15625 -12.828125 L 8.203125 -12.828125 C 8.773438 -12.828125 9.109375 -12.851562 9.203125 -12.90625 C 9.304688 -12.96875 9.390625 -13.019531 9.453125 -13.0625 L 9.484375 -13.0625 L 9.484375 -10.59375 L 9.453125 -10.5625 C 9.234375 -10.632812 8.660156 -10.671875 7.734375 -10.671875 L 6.28125 -10.671875 Z M 6.28125 0.0625 "/>
      </g>
    </g>
  </g>
  <g fill="#b6875b" fill-opacity="1" transform="matrix(1.6484, 0, 0, 1.6484, 527.925964, -242.229782)" style="">
    <g transform="translate(215.171474, 268.043918)">
      <g>
        <path d="M 9.40625 -12.109375 L 9.21875 -9.28125 L 9.15625 -9.265625 C 8.675781 -9.972656 7.863281 -10.429688 6.71875 -10.640625 C 6.363281 -10.710938 6.019531 -10.75 5.6875 -10.75 C 5.351562 -10.75 5.066406 -10.71875 4.828125 -10.65625 C 4.597656 -10.601562 4.398438 -10.523438 4.234375 -10.421875 C 3.878906 -10.179688 3.703125 -9.878906 3.703125 -9.515625 C 3.703125 -9.023438 3.859375 -8.65625 4.171875 -8.40625 C 4.554688 -8.113281 5.191406 -7.90625 6.078125 -7.78125 C 6.972656 -7.664062 7.691406 -7.503906 8.234375 -7.296875 C 8.773438 -7.085938 9.21875 -6.828125 9.5625 -6.515625 C 10.21875 -5.921875 10.546875 -5.085938 10.546875 -4.015625 C 10.546875 -2.597656 10.015625 -1.507812 8.953125 -0.75 C 8.035156 -0.09375 6.882812 0.234375 5.5 0.234375 C 4.375 0.234375 3.265625 0.0234375 2.171875 -0.390625 C 1.816406 -0.535156 1.503906 -0.703125 1.234375 -0.890625 L 1.34375 -4.109375 L 1.375 -4.140625 C 2.175781 -2.765625 3.484375 -2.078125 5.296875 -2.078125 C 6.597656 -2.078125 7.457031 -2.390625 7.875 -3.015625 C 8.007812 -3.222656 8.078125 -3.457031 8.078125 -3.71875 C 8.078125 -3.976562 8.035156 -4.191406 7.953125 -4.359375 C 7.867188 -4.535156 7.734375 -4.679688 7.546875 -4.796875 C 7.171875 -5.046875 6.539062 -5.210938 5.65625 -5.296875 C 4.78125 -5.378906 4.0625 -5.535156 3.5 -5.765625 C 2.9375 -5.992188 2.488281 -6.28125 2.15625 -6.625 C 1.550781 -7.238281 1.25 -8.097656 1.25 -9.203125 C 1.25 -10.347656 1.648438 -11.273438 2.453125 -11.984375 C 3.273438 -12.703125 4.378906 -13.0625 5.765625 -13.0625 C 7.148438 -13.0625 8.363281 -12.742188 9.40625 -12.109375 Z M 9.40625 -12.109375 "/>
      </g>
    </g>
  </g>
</svg>