<svg viewBox="529.724 178.082 370.276 21.919" xmlns="http://www.w3.org/2000/svg"><path d="m9.53125-8.1875c-.324219.023438-.667969.03125-1.03125.03125-.355469 0-.882812-.023438-1.578125-.078125v8.234375h-4.203125v-21.15625c1.476562-.1875 3.296875-.28125 5.453125-.28125 2.925781 0 5.109375.542969 6.546875 1.625 1.445312 1.074219 2.171875 2.742188 2.171875 5 0 1.75-.664063 3.25-1.984375 4.5-.4375.398438-.933594.746094-1.484375 1.046875l3.21875 6.796875c.632813 1.40625 1.125 2.242188 1.46875 2.5l-.09375.078125c-1.023437-.1640625-2.625-.1601562-4.8125.015625zm-1.0625-9.515625c-.542969 0-1.058594.027344-1.546875.078125v6.046875c.507813.074219 1.113281.109375 1.8125.109375.695313 0 1.28125-.054688 1.75-.171875.476563-.125.890625-.316406 1.234375-.578125.75-.550781 1.125-1.382812 1.125-2.5 0-1.125-.390625-1.914062-1.171875-2.375-.730469-.40625-1.796875-.609375-3.203125-.609375zm0 0" transform="translate(527.005584 199.609365)"/><path d="m4.4375-2.5c-.960938-.914062-1.714844-2.015625-2.265625-3.296875-.554687-1.289063-.828125-2.703125-.828125-4.234375 0-1.539062.253906-2.992188.765625-4.359375.519531-1.375 1.257813-2.582031 2.21875-3.625.96875-1.050781 2.128906-1.882813 3.484375-2.5 1.363281-.613281 2.890625-.921875 4.578125-.921875 2.90625 0 5.359375.917969 7.359375 2.75 2.125 1.960938 3.1875 4.605469 3.1875 7.9375 0 3.230469-1.09375 5.917969-3.28125 8.0625-1.355469 1.3125-2.964844 2.21875-4.828125 2.71875-.917969.238281-1.992187.359375-3.21875.359375-1.230469 0-2.492187-.25-3.78125-.75-1.292969-.507813-2.421875-1.222656-3.390625-2.140625zm1.3125-7.75c0 .980469.160156 1.882812.484375 2.703125.320313.824219.773437 1.53125 1.359375 2.125 1.238281 1.242187 2.828125 1.859375 4.765625 1.859375 1.84375 0 3.320313-.59375 4.4375-1.78125 1.144531-1.238281 1.71875-2.921875 1.71875-5.046875 0-2.007813-.542969-3.679687-1.625-5.015625-1.179687-1.4375-2.78125-2.15625-4.8125-2.15625-1.980469 0-3.546875.730469-4.703125 2.1875-1.085938 1.355469-1.625 3.0625-1.625 5.125zm0 0" transform="translate(550.424627 199.609365)"/><path d="m14.71875-21.125c.65625.054688 1.195312.078125 1.625.078125h1.3125c.445312 0 .910156-.039063 1.390625-.125v13.09375c0 2.59375-.789063 4.679687-2.359375 6.25-1.480469 1.480469-3.34375 2.21875-5.59375 2.21875-2.460938 0-4.449219-.632813-5.96875-1.90625-1.699219-1.4375-2.546875-3.503906-2.546875-6.203125v-13.40625c.875.054688 1.695313.078125 2.46875.078125.78125 0 1.425781-.039063 1.9375-.125v13.65625c0 1.335937.40625 2.367187 1.21875 3.09375.75.679687 1.695313 1.015625 2.84375 1.015625 1.6875 0 2.8125-.863281 3.375-2.59375.195313-.625.296875-1.394531.296875-2.3125zm0 0" transform="translate(579.256321 199.609365)"/><path d="m2.859375 0c.0625-.351562.09375-.742188.09375-1.171875v-19.875h3.171875l8.390625 13.203125v-12.125c0-.582031-.054687-.941406-.15625-1.078125h4.265625c-.054688.429687-.078125.890625-.078125 1.390625v19.65625h-3.296875l-8.25-12.671875v12.671875zm0 0" transform="translate(605.444992 199.609365)"/><path d="m7.84375.390625c-1.710938 0-3.320312-.136719-4.828125-.40625v-21.171875c1.394531-.164062 3.015625-.25 4.859375-.25s3.507812.25 5 .75c1.488281.5 2.734375 1.214844 3.734375 2.140625 2.03125 1.855469 3.046875 4.453125 3.046875 7.796875 0 3.75-1.132812 6.59375-3.390625 8.53125-2.023437 1.742188-4.828125 2.609375-8.421875 2.609375zm-.703125-3.859375c.6875.125 1.367187.1875 2.046875.1875.6875 0 1.425781-.128906 2.21875-.390625.789062-.269531 1.476562-.691406 2.0625-1.265625 1.238281-1.195312 1.859375-2.945312 1.859375-5.25 0-3.78125-1.375-6.101562-4.125-6.96875-.90625-.28125-1.960937-.421875-3.15625-.421875h-.421875c-.15625 0-.320312.007813-.484375.015625zm0 0" transform="translate(631.491229 199.609365)"/><path d="m10.3125.09375c-.5-.0625-1.804688-.09375-3.90625-.09375h-.5v-17.5h-3.140625c-.929687 0-1.476563.046875-1.640625.140625-.167969.09375-.296875.179687-.390625.25l-.046875-.015625v-4.046875l.046875-.046875c.34375.117188 1.28125.171875 2.8125.171875h9.921875c.925781 0 1.472656-.046875 1.640625-.140625.164063-.09375.296875-.175781.390625-.25l.046875.015625v4.046875l-.046875.046875c-.34375-.113281-1.28125-.171875-2.8125-.171875h-2.375zm0 0" transform="translate(657.616587 199.609365)"/><path d="m4.25.125c-.90625-.0859375-1.964844-.125-3.171875-.125h-1.25l6.875-19.28125c.3125-.875.46875-1.378906.46875-1.515625 0-.144531-.007813-.234375-.015625-.265625l.015625-.03125c.6875.03125 1.414063.046875 2.1875.046875.625 0 1.378906-.007813 2.265625-.03125l.015625.03125c-.023437.042969-.03125.101563-.03125.171875 0 .199219.160156.734375.484375 1.609375l7.015625 19.3125c-.210937-.0117188-.453125-.015625-.734375-.015625 0 0-.277344-.0117188-.828125-.03125-.261719 0-.496094 0-.703125 0h-2.453125l-1.5-4.5625h-7.140625zm7.40625-8.484375-2.390625-7.359375-2.3125 7.359375zm0 0" transform="translate(678.392601 199.609365)"/><path d="m16.015625-1.53125c-.773437.617188-1.777344 1.089844-3.015625 1.421875-1.230469.332031-2.746094.5-4.546875.5-1.792969 0-3.703125-.164063-5.734375-.484375v-20.859375c2.050781-.320313 3.828125-.484375 5.328125-.484375s2.734375.140625 3.703125.421875 1.753906.667969 2.359375 1.15625c1.207031.9375 1.8125 2.15625 1.8125 3.65625 0 1.492187-.546875 2.726563-1.640625 3.703125 1.289062.398438 2.289062 1.15625 3 2.28125.644531 1 .96875 2.109375.96875 3.328125s-.179688 2.261719-.53125 3.125c-.355469.867187-.921875 1.609375-1.703125 2.234375zm-9.09375-11.546875c.4375.074219.988281.109375 1.65625.109375.664063 0 1.210937-.085938 1.640625-.265625.425781-.175781.753906-.394531.984375-.65625.375-.4375.5625-1.039063.5625-1.8125 0-1.613281-.949219-2.421875-2.84375-2.421875-.804687 0-1.46875.039062-2 .109375zm2.328125 3.375c-.886719 0-1.664062.058594-2.328125.171875v6.21875c.726563.199219 1.5.296875 2.3125.296875s1.523437-.097656 2.140625-.296875c.625-.195312 1.144531-.460938 1.5625-.796875.851562-.695313 1.28125-1.582031 1.28125-2.65625 0-1.957031-1.65625-2.9375-4.96875-2.9375zm0 0" transform="translate(701.874944 199.609365)"/><path d="m5.8125 0c-1.554688 0-2.585938.03125-3.09375.09375v-21.234375c.25.0625.769531.09375 1.5625.09375.800781 0 1.734375-.019531 2.796875-.0625v17.3125h3.265625c.945312 0 1.707031-.03125 2.28125-.09375-.074219 2.46875-.109375 3.75-.109375 3.84375v.15625c-1.03125-.0742188-2.765625-.109375-5.203125-.109375zm0 0" transform="translate(725.357286 199.609365)"/><path d="m13.3125-3.796875c.644531 0 1.097656-.0625 1.359375-.1875l.0625.015625-.15625 3.96875h-11.859375v-21.15625c.289062.023438.609375.039062.953125.046875l1.109375.03125c.738281.023437 1.539062.03125 2.40625.03125 2.414062 0 4.804688-.039063 7.171875-.125-.125.929687-.1875 2.167969-.1875 3.71875 0 .167969.007813.292969.03125.375l-.03125.046875c-.542969-.15625-1.324219-.234375-2.34375-.234375h-4.984375v4.03125h3.765625c1.15625 0 1.847656-.03125 2.078125-.09375l.046875 3.90625c-.5-.050781-1.152344-.078125-1.953125-.078125h-3.9375v5.703125zm0 0" transform="translate(743.426996 199.609365)"/><g fill="#b6875b"><path d="m2.59375.078125c-.554688-.0546875-1.199219-.078125-1.9375-.078125h-.765625l4.203125-11.75c.1875-.53125.28125-.835938.28125-.921875 0-.09375-.007812-.144531-.015625-.15625l.015625-.03125c.414062.023437.859375.03125 1.328125.03125.382813 0 .847656-.003906 1.390625-.015625v.015625c-.011719.03125-.015625.070313-.015625.109375 0 .125.097656.449219.296875.96875l4.28125 11.78125c-.136719-.0117188-.289062-.015625-.453125-.015625 0 0-.171875-.0078125-.515625-.015625-.15625 0-.296875 0-.421875 0h-1.5l-.90625-2.78125h-4.359375zm4.515625-5.171875-1.453125-4.484375-1.421875 4.484375zm0 0" transform="matrix(1.6484 0 0 1.6484 772.4130453008 199.6138124312)"/><path d="m5.8125-4.984375c-.199219.011719-.40625.015625-.625.015625s-.542969-.015625-.96875-.046875v5.015625h-2.5625v-12.890625c.90625-.113281 2.007812-.171875 3.3125-.171875 1.789062 0 3.125.328125 4 .984375.882812.65625 1.328125 1.671875 1.328125 3.046875 0 1.074219-.40625 1.992188-1.21875 2.75-.261719.242188-.5625.449219-.90625.625l1.96875 4.15625c.382813.855469.679687 1.359375.890625 1.515625l-.046875.046875c-.625-.1015625-1.605469-.0976562-2.9375.015625zm-.65625-5.8125c-.324219 0-.636719.015625-.9375.046875v3.6875c.3125.054688.675781.078125 1.09375.078125.425781 0 .785156-.035156 1.078125-.109375.289063-.082031.539063-.195312.75-.34375.457031-.34375.6875-.851562.6875-1.53125 0-.6875-.242187-1.171875-.71875-1.453125-.4375-.25-1.089844-.375-1.953125-.375zm0 0" transform="matrix(1.6484 0 0 1.6484 793.0659642888 199.6138124312)"/><path d="m6.28125.0625c-.304688-.0429688-1.09375-.0625-2.375-.0625h-.3125v-10.671875h-1.90625c-.5625 0-.898438.03125-1 .09375-.105469.054687-.1875.105469-.25.15625l-.015625-.015625v-2.46875l.015625-.03125c.21875.074219.789062.109375 1.71875.109375h6.046875c.570313 0 .90625-.023437 1-.078125.101563-.0625.1875-.113281.25-.15625h.03125v2.46875l-.03125.03125c-.21875-.070312-.792969-.109375-1.71875-.109375h-1.453125zm0 0" transform="matrix(1.6484 0 0 1.6484 813.655309434 199.6138124312)"/><path d="m1.953125-12.859375c.644531.023437 1.035156.03125 1.171875.03125h.6875c.34375 0 .617188-.023437.828125-.078125l-.015625 12.90625h-2.671875zm0 0" transform="matrix(1.6484 0 0 1.6484 831.59046189 199.6138124312)"/><path d="m9.40625-12.109375-.1875 2.828125-.0625.015625c-.480469-.707031-1.292969-1.164063-2.4375-1.375-.355469-.070313-.699219-.109375-1.03125-.109375-.335938 0-.621094.03125-.859375.09375-.230469.054688-.429687.132812-.59375.234375-.355469.242187-.53125.542969-.53125.90625 0 .492187.15625.859375.46875 1.109375.382813.292969 1.019531.5 1.90625.625.894531.117188 1.613281.277344 2.15625.484375.539063.210937.984375.46875 1.328125.78125.65625.59375.984375 1.429687.984375 2.5 0 1.417969-.53125 2.507813-1.59375 3.265625-.917969.65625-2.070313.984375-3.453125.984375-1.125 0-2.234375-.2109375-3.328125-.625-.355469-.144531-.667969-.3125-.9375-.5l.109375-3.21875.03125-.03125c.800781 1.375 2.109375 2.0625 3.921875 2.0625 1.300781 0 2.160156-.3125 2.578125-.9375.132812-.207031.203125-.441406.203125-.703125 0-.257812-.042969-.472656-.125-.640625-.085937-.175781-.21875-.320313-.40625-.4375-.375-.25-1.007813-.414063-1.890625-.5-.875-.082031-1.59375-.238281-2.15625-.46875-.5625-.226563-1.011719-.515625-1.34375-.859375-.605469-.613281-.90625-1.472656-.90625-2.578125 0-1.144531.398438-2.070313 1.203125-2.78125.820313-.71875 1.925781-1.078125 3.3125-1.078125 1.382813 0 2.597656.320312 3.640625.953125zm0 0" transform="matrix(1.6484 0 0 1.6484 844.0901158984 199.6138124312)"/><path d="m6.28125.0625c-.304688-.0429688-1.09375-.0625-2.375-.0625h-.3125v-10.671875h-1.90625c-.5625 0-.898438.03125-1 .09375-.105469.054687-.1875.105469-.25.15625l-.015625-.015625v-2.46875l.015625-.03125c.21875.074219.789062.109375 1.71875.109375h6.046875c.570313 0 .90625-.023437 1-.078125.101563-.0625.1875-.113281.25-.15625h.03125v2.46875l-.03125.03125c-.21875-.070312-.792969-.109375-1.71875-.109375h-1.453125zm0 0" transform="matrix(1.6484 0 0 1.6484 864.679462692 199.6138124312)"/><path d="m9.40625-12.109375-.1875 2.828125-.0625.015625c-.480469-.707031-1.292969-1.164063-2.4375-1.375-.355469-.070313-.699219-.109375-1.03125-.109375-.335938 0-.621094.03125-.859375.09375-.230469.054688-.429687.132812-.59375.234375-.355469.242187-.53125.542969-.53125.90625 0 .492187.15625.859375.46875 1.109375.382813.292969 1.019531.5 1.90625.625.894531.117188 1.613281.277344 2.15625.484375.539063.210937.984375.46875 1.328125.78125.65625.59375.984375 1.429687.984375 2.5 0 1.417969-.53125 2.507813-1.59375 3.265625-.917969.65625-2.070313.984375-3.453125.984375-1.125 0-2.234375-.2109375-3.328125-.625-.355469-.144531-.667969-.3125-.9375-.5l.109375-3.21875.03125-.03125c.800781 1.375 2.109375 2.0625 3.921875 2.0625 1.300781 0 2.160156-.3125 2.578125-.9375.132812-.207031.203125-.441406.203125-.703125 0-.257812-.042969-.472656-.125-.640625-.085937-.175781-.21875-.320313-.40625-.4375-.375-.25-1.007813-.414063-1.890625-.5-.875-.082031-1.59375-.238281-2.15625-.46875-.5625-.226563-1.011719-.515625-1.34375-.859375-.605469-.613281-.90625-1.472656-.90625-2.578125 0-1.144531.398438-2.070313 1.203125-2.78125.820313-.71875 1.925781-1.078125 3.3125-1.078125 1.382813 0 2.597656.320312 3.640625.953125zm0 0" transform="matrix(1.6484 0 0 1.6484 882.6146217416 199.6138124312)"/></g></svg>